<svg width="830" height="220" viewBox="0 0 830 220" fill="none" xmlns="http://www.w3.org/2000/svg">
<rect width="830" height="220" fill="#61DBFB"/>
<g clip-path="url(#clip0_331_24)">
<path d="M415 129.233C425.337 129.233 433.717 120.846 433.717 110.5C433.717 100.154 425.337 91.7666 415 91.7666C404.663 91.7666 396.283 100.154 396.283 110.5C396.283 120.846 404.663 129.233 415 129.233Z" fill="white"/>
<path d="M415 148.881C470.469 148.881 515.435 131.697 515.435 110.5C515.435 89.3029 470.469 72.1194 415 72.1194C359.531 72.1194 314.565 89.3029 314.565 110.5C314.565 131.697 359.531 148.881 415 148.881Z" stroke="white" stroke-width="10"/>
<path d="M381.79 129.69C409.524 177.768 446.876 208.152 465.217 197.553C483.559 186.955 475.944 139.388 448.21 91.3097C420.476 43.2315 383.124 12.8481 364.783 23.4466C346.441 34.0451 354.056 81.612 381.79 129.69Z" stroke="white" stroke-width="10"/>
<path d="M381.79 91.3097C354.056 139.388 346.441 186.955 364.783 197.553C383.124 208.152 420.476 177.769 448.21 129.69C475.944 81.6121 483.559 34.0452 465.217 23.4467C446.876 12.8482 409.524 43.2315 381.79 91.3097Z" stroke="white" stroke-width="10"/>
</g>
<defs>
<clipPath id="clip0_331_24">
<rect width="210" height="187" fill="white" transform="translate(310 17)"/>
</clipPath>
</defs>
</svg>
